<svg width="320" height="320" viewBox="0 0 320 320" fill="none" xmlns="http://www.w3.org/2000/svg">
<path d="M45.8382 114.019L39.4792 115.884L44.4035 117.768L43.364 120.485L32.2128 116.217L33.2524 113.501L38.1449 115.373L34.6749 109.784L35.8968 106.591L39.7076 113.003L47.1087 110.7L45.8382 114.019Z" fill="#008080"/>
<path d="M49.1243 101.848L47.1295 105.833L48.6957 107.415L47.3328 110.138L38.5899 100.93L40.0974 97.9185L52.7081 99.4002L51.33 102.153L49.1243 101.848ZM46.7817 101.512L42.2105 100.878L45.4645 104.143L46.7817 101.512Z" fill="#008080"/>
<path d="M47.236 85.6444L54.144 89.9312C55.2135 90.5948 55.8489 91.4095 56.0503 92.3752C56.2577 93.3313 56.0445 94.32 55.4108 95.3412C54.7471 96.4107 53.9115 97.0798 52.904 97.3487C51.8964 97.6175 50.8338 97.4052 49.7162 96.7117L51.2408 94.2548C51.6648 94.5179 52.0413 94.6315 52.3705 94.5956C52.6901 94.5537 52.9515 94.3689 53.1548 94.0414C53.3401 93.7427 53.3873 93.4517 53.2963 93.1683C53.2052 92.8849 52.9766 92.6297 52.6105 92.4025L45.7024 88.1157L47.236 85.6444Z" fill="#008080"/>
<path d="M61.4491 82.7569L58.763 86.3126L60.0153 88.1538L58.1802 90.5831L51.2571 79.939L53.2871 77.2519L65.4181 81.0017L63.5625 83.4582L61.4491 82.7569ZM59.2066 82.0008L54.8268 80.5467L57.433 84.3486L59.2066 82.0008Z" fill="#008080"/>
<path d="M71.01 74.9471L64.4139 74.3117L68.2835 77.8931L66.308 80.0276L57.5451 71.9176L59.5206 69.783L63.3653 73.3413L62.224 66.8621L64.5461 64.353L65.6978 71.7225L73.4245 72.3383L71.01 74.9471Z" fill="#008080"/>
<path d="M82.376 64.4784L75.912 63.0194L79.3011 67.0585L77.0731 68.928L69.3984 59.7814L71.6264 57.9119L74.9937 61.9249L74.6753 55.3537L77.2942 53.1562L77.5111 60.612L85.0992 62.1935L82.376 64.4784Z" fill="#008080"/>
<path d="M91.1637 55.4384L87.4839 57.9518L88.0836 60.0962L85.5695 61.8134L82.4027 49.5172L85.1836 47.6178L95.4853 55.0407L92.9432 56.7771L91.1637 55.4384ZM89.2795 54.0066L85.5922 51.2316L86.8497 55.6661L89.2795 54.0066Z" fill="#008080"/>
<path d="M106.019 49.2916L103.462 50.678L95.6754 46.5226L99.186 52.9967L96.6292 54.3831L90.9378 43.887L93.4945 42.5006L101.297 46.6859L97.7707 40.1819L100.327 38.7955L106.019 49.2916Z" fill="#008080"/>
<path d="M105.958 36.2784L108.718 42.8669C108.994 43.5258 109.369 43.9651 109.842 44.1848C110.315 44.4046 110.866 44.383 111.493 44.1201C112.121 43.8571 112.527 43.4778 112.713 42.982C112.899 42.4862 112.853 41.9089 112.577 41.25L109.817 34.6615L112.499 33.5375L115.253 40.1104C115.665 41.0934 115.804 42.0125 115.671 42.8675C115.537 43.7226 115.187 44.4716 114.621 45.1147C114.065 45.7534 113.353 46.2546 112.485 46.6183C111.617 46.982 110.767 47.1411 109.937 47.0957C109.113 47.0354 108.359 46.7486 107.677 46.2354C106.99 45.7117 106.441 44.9583 106.029 43.9752L103.275 37.4024L105.958 36.2784Z" fill="#008080"/>
<path d="M126.655 41.6621C125.815 41.9007 125.024 41.9781 124.281 41.8944C123.538 41.8107 122.889 41.5589 122.333 41.1391C121.789 40.7161 121.399 40.1314 121.163 39.385L124.141 38.5393C124.306 38.9523 124.546 39.2377 124.862 39.3955C125.175 39.5424 125.533 39.5585 125.936 39.4439C126.351 39.3262 126.652 39.1405 126.839 38.8869C127.023 38.6224 127.067 38.3211 126.971 37.983C126.891 37.6994 126.726 37.4928 126.477 37.3631C126.239 37.2303 125.961 37.1442 125.643 37.1048C125.337 37.0623 124.905 37.0375 124.349 37.0303C123.542 37.012 122.872 36.9548 122.338 36.859C121.804 36.7631 121.304 36.5396 120.839 36.1885C120.374 35.8373 120.039 35.3017 119.835 34.5819C119.531 33.5129 119.681 32.5685 120.285 31.7486C120.886 30.9179 121.808 30.3259 123.052 29.9727C124.317 29.6134 125.424 29.6291 126.372 30.02C127.316 30.3999 127.969 31.1221 128.331 32.1865L125.304 33.0461C125.177 32.6815 124.958 32.4312 124.649 32.2952C124.336 32.1483 123.983 32.1306 123.59 32.2421C123.252 32.3381 123.006 32.5083 122.851 32.7526C122.694 32.986 122.663 33.2717 122.759 33.6099C122.864 33.9807 123.121 34.2202 123.529 34.3283C123.937 34.4364 124.545 34.5051 125.355 34.5344C126.168 34.5746 126.836 34.6442 127.359 34.7432C127.894 34.839 128.392 35.0571 128.854 35.3973C129.316 35.7376 129.644 36.2513 129.839 36.9385C130.025 37.5929 130.025 38.2354 129.839 38.8659C129.663 39.4933 129.304 40.055 128.762 40.551C128.219 41.047 127.516 41.4174 126.655 41.6621Z" fill="#008080"/>
<path d="M139.951 30.2757C140.082 30.9548 140.047 31.6084 139.845 32.2364C139.641 32.8534 139.25 33.3968 138.671 33.8669C138.092 34.3369 137.324 34.6645 136.366 34.8498L134.596 35.1922L135.41 39.4003L132.555 39.9528L130.287 28.2303L134.912 27.3353C135.848 27.1544 136.669 27.1629 137.377 27.3608C138.086 27.5587 138.656 27.9103 139.089 28.4156C139.521 28.9209 139.809 29.541 139.951 30.2757ZM135.71 32.6207C136.255 32.5152 136.637 32.3086 136.855 32.0008C137.072 31.6931 137.136 31.3054 137.045 30.8379C136.955 30.3703 136.751 30.0343 136.435 29.83C136.118 29.6256 135.687 29.5762 135.141 29.6818L133.588 29.9822L134.157 32.9212L135.71 32.6207Z" fill="#008080"/>
<path d="M148.623 37.5627C147.505 37.6673 146.453 37.5037 145.468 37.0721C144.493 36.6394 143.686 35.986 143.047 35.112C142.417 34.2257 142.048 33.2011 141.939 32.0383C141.83 30.8755 142.003 29.8058 142.459 28.8294C142.925 27.8519 143.597 27.0601 144.474 26.4542C145.363 25.8472 146.366 25.4914 147.484 25.3868C148.601 25.2823 149.647 25.4463 150.622 25.879C151.607 26.3107 152.409 26.9646 153.026 27.8407C153.654 28.7157 154.023 29.7347 154.132 30.8975C154.241 32.0603 154.068 33.1356 153.614 34.1234C153.158 35.0998 152.492 35.891 151.615 36.4969C150.738 37.1029 149.74 37.4581 148.623 37.5627ZM148.376 34.9209C149.324 34.8322 150.051 34.4453 150.556 33.7603C151.073 33.0742 151.282 32.2118 151.185 31.1732C151.087 30.1232 150.721 29.3148 150.087 28.7477C149.463 28.1683 148.677 27.9229 147.729 28.0117C146.77 28.1015 146.031 28.4838 145.513 29.1586C145.007 29.8323 144.803 30.6998 144.903 31.761C145.001 32.8109 145.362 33.6256 145.985 34.205C146.619 34.7721 147.416 35.0107 148.376 34.9209Z" fill="#008080"/>
<path d="M162.406 36.9277L159.953 32.4037L159.256 32.399L159.225 36.9061L156.317 36.8864L156.398 24.9468L161.279 24.9799C162.221 24.9863 163.019 25.1561 163.674 25.4894C164.341 25.8228 164.837 26.2797 165.162 26.8602C165.487 27.4294 165.647 28.0654 165.642 28.7684C165.637 29.5622 165.405 30.2693 164.947 30.8898C164.501 31.5105 163.84 31.9482 162.965 32.2031L165.688 36.95L162.406 36.9277ZM159.27 30.341L161.073 30.3533C161.606 30.3569 162.004 30.2292 162.266 29.9702C162.54 29.7112 162.679 29.3436 162.682 28.8674C162.685 28.4139 162.551 28.0558 162.281 27.7931C162.022 27.5306 161.626 27.3975 161.093 27.3939L159.29 27.3816L159.27 30.341Z" fill="#008080"/>
<path d="M177.072 25.9882L176.855 28.3082L173.705 28.0133L172.809 37.5813L169.913 37.3102L170.809 27.7423L167.659 27.4475L167.876 25.1275L177.072 25.9882Z" fill="#008080"/>
<path d="M181.642 38.9707C180.783 38.8169 180.038 38.5396 179.407 38.1388C178.776 37.738 178.303 37.2272 177.987 36.6064C177.683 35.9876 177.589 35.2911 177.705 34.5169L180.752 35.062C180.719 35.5053 180.809 35.8671 181.024 36.1474C181.241 36.4166 181.556 36.5881 181.969 36.6619C182.393 36.7378 182.745 36.7028 183.024 36.557C183.306 36.4 183.477 36.1485 183.539 35.8025C183.591 35.5123 183.534 35.2543 183.367 35.0286C183.211 34.805 182.999 34.6058 182.731 34.4311C182.474 34.2584 182.097 34.047 181.6 33.7969C180.883 33.4267 180.305 33.0815 179.867 32.7613C179.429 32.441 179.078 32.0211 178.814 31.5016C178.55 30.9821 178.484 30.354 178.616 29.6173C178.811 28.5235 179.36 27.7405 180.262 27.2683C181.167 26.785 182.255 26.6572 183.528 26.8848C184.822 27.1163 185.81 27.6156 186.491 28.3824C187.173 29.138 187.444 30.0733 187.302 31.1883L184.205 30.6343C184.25 30.2508 184.164 29.9301 183.945 29.6721C183.728 29.4029 183.419 29.2324 183.017 29.1605C182.671 29.0986 182.375 29.1436 182.129 29.2954C181.885 29.4361 181.732 29.6794 181.67 30.0254C181.602 30.4049 181.728 30.7327 182.047 31.0086C182.366 31.2846 182.883 31.6132 183.598 31.9945C184.312 32.387 184.882 32.7424 185.308 33.0606C185.746 33.3809 186.098 33.7952 186.365 34.3036C186.631 34.8119 186.701 35.4177 186.575 36.1209C186.455 36.7906 186.174 37.368 185.73 37.853C185.297 38.34 184.728 38.6875 184.023 38.8954C183.318 39.1033 182.524 39.1284 181.642 38.9707Z" fill="#008080"/>
<path d="M194.377 41.8277L191.898 35.6823L190.506 40.7678L187.7 39.9999L190.853 28.4837L193.658 29.2516L192.275 34.3043L197.497 30.3025L200.794 31.2052L194.787 35.6269L197.806 42.7663L194.377 41.8277Z" fill="#008080"/>
<path d="M204.349 45.3416C203.302 44.9376 202.433 44.3229 201.742 43.4975C201.063 42.6762 200.631 41.7319 200.447 40.6644C200.278 39.5905 200.404 38.5087 200.824 37.419C201.245 36.3294 201.876 35.4488 202.718 34.7772C203.572 34.1097 204.526 33.6999 205.581 33.548C206.647 33.4001 207.703 33.5281 208.75 33.9322C209.798 34.3362 210.661 34.9489 211.341 35.7701C212.031 36.5955 212.458 37.5379 212.62 38.5971C212.794 39.6605 212.67 40.737 212.25 41.8267C211.829 42.9163 211.196 43.8022 210.349 44.4844C209.507 45.156 208.558 45.5677 207.503 45.7197C206.448 45.8717 205.396 45.7457 204.349 45.3416ZM205.304 42.8661C206.193 43.209 207.016 43.1862 207.773 42.7978C208.541 42.4135 209.113 41.7348 209.488 40.7615C209.868 39.7776 209.9 38.8907 209.585 38.1007C209.285 37.3043 208.69 36.7346 207.802 36.3918C206.902 36.0449 206.071 36.0583 205.307 36.432C204.553 36.8098 203.985 37.4959 203.601 38.4903C203.222 39.4742 203.182 40.3643 203.482 41.1608C203.798 41.9508 204.405 42.5192 205.304 42.8661Z" fill="#008080"/>
<path d="M223.039 40.5901L219.613 46.8586C219.271 47.4855 219.161 48.0524 219.285 48.5592C219.408 49.0661 219.769 49.4827 220.366 49.8089C220.963 50.1352 221.513 50.2162 222.016 50.0519C222.519 49.8876 222.942 49.492 223.285 48.8651L226.711 42.5966L229.263 43.9914L225.845 50.245C225.334 51.1803 224.703 51.8626 223.951 52.2918C223.2 52.7211 222.396 52.915 221.54 52.8736C220.694 52.8376 219.858 52.5939 219.032 52.1426C218.206 51.6913 217.552 51.127 217.069 50.4497C216.602 49.7679 216.356 49.0003 216.331 48.1469C216.312 47.2836 216.558 46.3843 217.069 45.449L220.487 39.1954L223.039 40.5901Z" fill="#008080"/>
<path d="M235.719 48.2026C236.758 48.913 237.525 49.7397 238.02 50.6828C238.515 51.6258 238.717 52.6157 238.627 53.6525C238.552 54.6864 238.181 55.69 237.516 56.6635C236.856 57.6276 236.056 58.3368 235.113 58.7912C234.18 59.252 233.179 59.4195 232.111 59.2938C231.053 59.1744 230.009 58.7627 228.979 58.0587L225.287 55.5339L232.026 45.6778L235.719 48.2026ZM230.246 55.8752C231.154 56.496 232.03 56.7312 232.875 56.5807C233.719 56.4302 234.452 55.901 235.073 54.9931C235.694 54.0851 235.924 53.2057 235.764 52.3546C235.604 51.5036 235.07 50.7676 234.162 50.1468L233.025 49.3692L229.108 55.0976L230.246 55.8752Z" fill="#008080"/>
<path d="M240.095 66.5267L241.078 61.4755L240.543 61.0285L237.654 64.4881L235.421 62.6238L243.075 53.4592L246.821 56.5881C247.544 57.1913 248.052 57.8299 248.346 58.5038C248.649 59.185 248.741 59.853 248.623 60.5076C248.512 61.1535 248.231 61.7463 247.78 62.2859C247.271 62.8951 246.643 63.2937 245.895 63.4817C245.156 63.6769 244.368 63.5948 243.531 63.2354L242.615 68.6308L240.095 66.5267ZM241.862 59.4488L243.246 60.6044C243.655 60.946 244.043 61.1003 244.41 61.0673C244.786 61.0415 245.127 60.8459 245.432 60.4804C245.723 60.1322 245.848 59.7709 245.806 59.3962C245.773 59.0289 245.552 58.6744 245.143 58.3328L243.759 57.1772L241.862 59.4488Z" fill="#008080"/>
<path d="M254.379 63.4218L249.305 68.4496C248.797 68.9524 248.53 69.4643 248.504 69.9853C248.477 70.5064 248.703 71.0085 249.182 71.4918C249.661 71.9751 250.165 72.21 250.695 72.1964C251.224 72.1828 251.742 71.9246 252.25 71.4219L257.324 66.3941L259.371 68.4602L254.309 73.476C253.552 74.2262 252.752 74.6995 251.909 74.8961C251.066 75.0926 250.24 75.0487 249.432 74.7643C248.631 74.488 247.9 74.0155 247.237 73.347C246.575 72.6784 246.109 71.9506 245.84 71.1636C245.588 70.3767 245.571 69.5708 245.792 68.746C246.02 67.9132 246.513 67.1217 247.27 66.3715L252.333 61.3557L254.379 63.4218Z" fill="#008080"/>
<path d="M256.037 79.2802L259.309 83.2393L257.474 84.7564L252.099 78.2539L253.803 76.8452L262.718 76.0971L259.467 72.1641L261.302 70.6471L266.677 77.1496L264.973 78.5582L256.037 79.2802Z" fill="#008080"/>
<path d="M268.145 83.1468L266.169 84.5349L268.408 87.7222L266.57 89.0126L264.332 85.8253L262.188 87.3308L264.72 90.9356L262.813 92.2749L258.61 86.29L268.38 79.4274L272.584 85.4123L270.677 86.7516L268.145 83.1468Z" fill="#008080"/>
<path d="M269.229 103.085L267.775 100.566L271.723 92.6717L265.344 96.3527L263.891 93.8336L274.232 87.8658L275.686 90.3849L271.709 98.2961L278.117 94.5981L279.571 97.1172L269.229 103.085Z" fill="#008080"/>
<path d="M284.118 106.791L276.735 110.195C275.592 110.722 274.562 110.803 273.645 110.44C272.733 110.086 272.025 109.364 271.522 108.272C270.995 107.129 270.897 106.063 271.227 105.074C271.558 104.085 272.32 103.315 273.515 102.764L274.725 105.39C274.272 105.599 273.97 105.851 273.819 106.145C273.678 106.435 273.688 106.755 273.849 107.105C273.996 107.424 274.213 107.624 274.5 107.704C274.786 107.784 275.125 107.734 275.517 107.554L282.9 104.15L284.118 106.791Z" fill="#008080"/>
<path d="M284.195 113.347L281.93 114.187L283.285 117.839L281.18 118.62L279.825 114.968L277.37 115.878L278.901 120.009L276.716 120.819L274.173 113.962L285.368 109.81L287.911 116.667L285.727 117.478L284.195 113.347Z" fill="#008080"/>
<path d="M267.403 212.597C296.452 153.28 271.914 81.6454 212.597 52.5969C153.28 23.5484 81.6454 48.086 52.5969 107.403C23.5485 166.72 48.086 238.355 107.403 267.403C166.72 296.452 238.355 271.914 267.403 212.597Z" stroke="#008080" stroke-width="2"/>
<path d="M159.999 42.8923C154.422 42.8926 148.853 43.2912 143.333 44.0851C137.813 44.8788 132.357 46.0658 127.006 47.637C121.656 49.2083 116.424 51.1597 111.352 53.4764C106.279 55.7928 101.378 58.4686 96.6864 61.4833C91.995 64.4981 87.5249 67.8442 83.3103 71.4959C79.096 75.1482 75.1478 79.0968 71.4961 83.3117C67.8444 87.5263 64.4983 91.9964 61.4835 96.6877C58.4683 101.379 55.792 106.279 53.475 111.352C51.1583 116.424 49.2069 121.656 47.6357 127.007C46.0645 132.358 44.8775 137.814 44.0838 143.334C43.2904 148.854 42.8923 154.424 42.8925 160.001C42.8923 165.577 43.2904 171.146 44.0838 176.665C44.8775 182.185 46.0645 187.641 47.6357 192.992C49.2069 198.343 51.1583 203.575 53.475 208.648C55.7919 213.721 58.4682 218.622 61.4835 223.313C64.4983 228.005 67.8444 232.475 71.4961 236.689C75.1479 240.904 79.096 244.852 83.3103 248.504C87.5249 252.155 91.995 255.501 96.6864 258.516C101.378 261.532 106.279 264.208 111.352 266.525C116.424 268.841 121.656 270.793 127.006 272.364C132.357 273.935 137.813 275.121 143.333 275.915C148.853 276.708 154.422 277.107 159.999 277.107C165.576 277.107 171.146 276.708 176.666 275.915C182.185 275.121 187.642 273.935 192.992 272.364C198.343 270.793 203.575 268.842 208.648 266.525C213.721 264.208 249.963 268.16 254.654 265.145C261.494 257.964 260.601 253.617 264.815 249.965C267.679 230.342 260.683 235.605 264.335 231.391C267.987 227.176 256.144 226.957 259.158 222.265C262.173 217.574 264.207 213.721 266.523 208.648C268.84 203.575 270.792 198.343 272.363 192.992C273.934 187.641 275.121 182.185 275.915 176.665C276.709 171.146 277.107 165.577 277.107 160.001C277.107 158.084 277.06 156.167 276.966 154.253C276.872 152.339 276.73 150.428 276.542 148.521C276.355 146.614 276.121 144.713 275.84 142.817C275.558 140.922 275.23 139.033 274.856 137.154C274.482 135.274 274.063 133.404 273.598 131.545C273.132 129.686 272.62 127.84 272.064 126.006C271.507 124.172 270.906 122.352 270.261 120.548C269.615 118.744 268.926 116.956 268.193 115.185C267.459 113.415 266.683 111.662 265.863 109.93C265.044 108.198 264.182 106.486 263.278 104.796C262.375 103.106 261.431 101.438 260.446 99.7943C259.461 98.151 258.435 96.5321 257.37 94.9391C256.306 93.3457 255.203 91.7787 254.061 90.2395C252.92 88.7004 251.741 87.1895 250.525 85.7082C249.309 84.2269 248.058 82.7757 246.771 81.3559C245.484 79.9357 244.162 78.5473 242.806 77.192C241.451 75.8372 240.064 74.5158 238.644 73.229C237.224 71.9422 235.773 70.6904 234.292 69.4747C232.81 68.259 231.299 67.0799 229.76 65.9384C228.221 64.7971 226.654 63.6938 225.061 62.6294C223.467 61.5647 221.848 60.5393 220.204 59.554C218.561 58.5691 216.893 57.6246 215.204 56.7215C213.514 55.818 211.802 54.9561 210.07 54.1366C208.337 53.3172 206.585 52.5405 204.815 51.8071C203.044 51.074 201.256 50.3845 199.452 49.7392C197.647 49.0936 195.827 48.4923 193.994 47.936C192.16 47.3795 190.313 46.8681 188.455 46.4022C186.596 45.9364 184.726 45.5164 182.846 45.1424C180.966 44.7686 179.078 44.441 177.183 44.1599C175.287 43.8791 173.385 43.645 171.479 43.4576C169.571 43.2695 167.66 43.1283 165.745 43.034C163.831 42.9398 161.915 42.8926 159.999 42.8923Z" fill="#008080"/>
<path d="M74.2707 121.114L74.7301 124.702C74.9008 126.031 75.1398 127.379 75.4324 128.704C75.7249 130.029 76.0711 131.331 76.4601 132.57C76.8491 133.809 77.2802 134.985 77.7401 136.057C78.2001 137.129 78.689 138.098 79.1945 138.922C79.6071 139.595 80.0801 140.293 80.6084 141.009C81.1368 141.724 81.7203 142.456 82.3524 143.203C82.9846 143.949 83.6653 144.707 84.3892 145.473C85.1131 146.239 85.8808 147.012 86.6845 147.785C88.2918 149.332 90.0465 150.883 91.901 152.391C92.8282 153.146 93.7796 153.889 94.7506 154.617C95.7216 155.344 96.7127 156.055 97.7154 156.744C97.8443 156.832 97.8965 156.957 97.882 157.111C97.8676 157.265 97.7862 157.449 97.6438 157.656C97.3589 158.071 96.8332 158.58 96.1287 159.136C95.4242 159.691 94.5403 160.292 93.5391 160.89C92.5379 161.489 91.4191 162.086 90.2442 162.631C89.4418 163.004 88.4757 163.517 87.3867 164.14C86.2978 164.763 85.0861 165.497 83.7944 166.311C81.2109 167.94 78.3063 169.892 75.4153 171.931C72.5242 173.969 69.646 176.094 67.1187 178.069C65.855 179.057 64.6791 180.006 63.6322 180.889C62.5853 181.772 61.6674 182.588 60.9212 183.307C60.088 184.11 59.3484 184.851 58.6991 185.539C58.0497 186.227 57.4911 186.864 57.0189 187.46C56.5467 188.057 56.162 188.612 55.8604 189.141C55.5587 189.669 55.3395 190.169 55.2017 190.653C55.0639 191.136 55.0079 191.602 55.0273 192.063C55.0467 192.525 55.1422 192.981 55.3122 193.445C55.4823 193.908 55.7255 194.377 56.0394 194.865C56.3534 195.353 56.7374 195.859 57.1886 196.395C57.5328 196.804 57.8917 197.163 58.2631 197.471C58.6345 197.779 59.0192 198.037 59.4185 198.244C59.8178 198.451 60.2317 198.607 60.6596 198.712C61.0874 198.818 61.5293 198.874 61.9863 198.879C62.4432 198.884 62.9149 198.838 63.4017 198.742C63.8885 198.646 64.3903 198.498 64.9075 198.301C65.4248 198.104 65.9568 197.857 66.5052 197.559C67.0535 197.26 67.6177 196.913 68.1978 196.514C68.9022 196.029 69.7412 195.349 70.683 194.513C71.6249 193.676 72.6704 192.683 73.7849 191.568C74.8995 190.454 76.0831 189.219 77.3057 187.901C78.5282 186.583 79.7896 185.18 81.0553 183.733C82.3211 182.285 83.5918 180.79 84.8361 179.287C86.0804 177.783 87.2969 176.27 88.455 174.785C89.613 173.3 90.7117 171.841 91.7188 170.448C92.7259 169.055 93.6415 167.727 94.4329 166.501C95.7644 164.437 96.7465 162.895 97.555 161.823C97.9593 161.287 98.3212 160.869 98.6606 160.562C99 160.255 99.317 160.059 99.6354 159.969C99.7947 159.924 99.9544 159.906 100.117 159.913C100.279 159.92 100.444 159.952 100.615 160.009C100.956 160.123 101.32 160.337 101.728 160.643C102.137 160.949 102.59 161.347 103.109 161.833C103.629 162.318 104.214 162.891 104.888 163.544C106.143 164.76 107.282 165.893 108.329 166.982C109.376 168.071 110.33 169.115 111.215 170.154C112.099 171.193 112.913 172.227 113.681 173.293C114.449 174.36 115.17 175.461 115.867 176.632C116.565 177.803 117.238 179.044 117.91 180.397C118.583 181.75 119.255 183.214 119.949 184.826C120.642 186.437 121.357 188.197 122.118 190.145C122.879 192.092 123.686 194.226 124.559 196.587C125.469 199.044 126.325 201.301 127.14 203.378C127.955 205.454 128.729 207.35 129.472 209.085C130.215 210.82 130.927 212.394 131.62 213.826C132.313 215.259 132.986 216.551 133.652 217.721C134.317 218.891 134.975 219.939 135.636 220.885C136.296 221.831 136.959 222.675 137.637 223.437C138.314 224.199 139.005 224.878 139.722 225.494C140.438 226.111 141.181 226.665 141.959 227.176C143.047 227.889 143.866 228.395 144.42 228.674C144.696 228.813 144.907 228.896 145.052 228.92C145.196 228.944 145.274 228.909 145.287 228.812C145.299 228.716 145.245 228.557 145.126 228.336C145.008 228.115 144.823 227.829 144.574 227.478C144.075 226.776 143.315 225.809 142.297 224.56C141.648 223.764 141.042 222.976 140.471 222.176C139.9 221.376 139.364 220.565 138.856 219.725C138.347 218.885 137.866 218.016 137.404 217.098C136.943 216.18 136.503 215.213 136.073 214.181C135.644 213.149 135.225 212.051 134.812 210.868C134.399 209.684 133.991 208.415 133.579 207.043C132.754 204.3 131.917 201.142 131.005 197.423C130.438 195.113 129.838 193.002 129.203 191.059C128.568 189.116 127.898 187.34 127.196 185.701C126.493 184.062 125.757 182.559 124.986 181.163C124.215 179.767 123.409 178.476 122.569 177.261C121.73 176.045 120.856 174.906 119.947 173.809C119.039 172.712 118.095 171.658 117.118 170.618C115.163 168.538 113.069 166.509 110.836 164.284C108.13 161.586 106.29 159.742 105.07 158.468C104.46 157.83 104.468 157.122 104.137 156.734C103.891 156.446 103.541 155.843 103.217 155.392C103.129 155.269 103.431 154.994 103.602 154.896C103.772 154.798 104.328 154.516 104.47 154.313C105.428 152.945 106.579 152.536 106.909 151.915C106.992 151.759 106.535 151.276 106.532 151.199C106.529 151.121 106.479 151.085 106.372 151.097C106.158 151.122 106.167 150.644 105.426 151.102L102.206 153.508L96.4043 149.791C95.1122 148.963 93.8799 148.117 92.7045 147.251C91.529 146.385 90.4113 145.499 89.3488 144.59C88.2862 143.681 87.2781 142.751 86.3248 141.795C85.3715 140.839 84.4724 139.857 83.6246 138.85C82.7769 137.843 81.9818 136.808 81.2359 135.745C80.49 134.682 79.794 133.591 79.1462 132.467C78.4985 131.344 77.8978 130.189 77.3446 129.001C76.7913 127.813 76.2857 126.591 75.8232 125.334L74.2707 121.114Z" fill="white"/>
<path d="M183.391 100.223C183.544 100.221 183.754 100.252 184.018 100.318C184.548 100.452 185.3 100.723 186.276 101.131C187.308 101.562 188.323 102.07 189.317 102.646C190.311 103.222 191.283 103.867 192.228 104.574C193.172 105.281 194.089 106.05 194.971 106.874C195.854 107.698 196.704 108.578 197.513 109.506C198.321 110.433 199.09 111.409 199.813 112.425C200.535 113.442 201.211 114.499 201.835 115.591C202.46 116.683 203.033 117.809 203.547 118.962C204.061 120.115 204.515 121.296 204.906 122.497C205.354 123.871 205.951 126.146 206.552 128.702C207.153 131.259 207.759 134.098 208.223 136.603C208.598 138.627 208.968 140.472 209.355 142.17C209.742 143.868 210.146 145.42 210.583 146.857C211.021 148.295 211.494 149.618 212.021 150.859C212.547 152.101 213.127 153.262 213.78 154.372C214.433 155.483 215.158 156.544 215.976 157.588C216.794 158.632 217.704 159.658 218.724 160.7C219.745 161.743 220.875 162.8 222.136 163.905C223.397 165.01 224.79 166.162 226.33 167.395C228.803 169.375 230.881 171.069 232.638 172.547C234.395 174.026 235.832 175.289 237.023 176.408C238.214 177.526 239.159 178.499 239.935 179.399C240.71 180.299 241.317 181.125 241.828 181.948C242.278 182.672 242.654 183.348 242.898 183.854C243.142 184.36 243.252 184.695 243.172 184.738C243.092 184.782 242.617 184.437 241.914 183.848C241.211 183.258 240.281 182.425 239.295 181.487C238.308 180.55 236.493 179.061 234.363 177.418C232.233 175.776 229.79 173.979 227.546 172.424C225.455 170.976 223.575 169.635 221.878 168.357C220.18 167.079 218.663 165.864 217.298 164.667C216.616 164.068 215.971 163.474 215.361 162.879C214.75 162.284 214.174 161.687 213.628 161.084C213.082 160.48 212.566 159.87 212.077 159.248C211.587 158.625 211.125 157.991 210.685 157.339C210.245 156.686 209.827 156.015 209.428 155.32C209.03 154.626 208.651 153.909 208.287 153.162C207.558 151.668 206.888 150.056 206.25 148.284C205.612 146.511 205.003 144.577 204.395 142.436C203.787 140.296 203.181 137.949 202.542 135.35C202.037 133.292 201.526 131.364 201.002 129.549C200.479 127.735 199.944 126.034 199.386 124.433C198.828 122.831 198.249 121.328 197.64 119.907C197.032 118.487 196.393 117.15 195.717 115.881C195.041 114.611 194.327 113.408 193.567 112.257C192.806 111.106 192 110.008 191.139 108.945C190.278 107.882 189.363 106.855 188.385 105.849C187.406 104.844 186.365 103.858 185.253 102.878C184.452 102.172 183.87 101.608 183.511 101.184C183.331 100.972 183.207 100.796 183.138 100.655C183.07 100.513 183.056 100.406 183.098 100.334C183.14 100.262 183.237 100.226 183.391 100.223Z" fill="white"/>
<path d="M170.611 106.243C171.176 106.226 171.728 106.259 172.26 106.34C172.792 106.42 173.306 106.548 173.792 106.726C174.279 106.904 174.738 107.132 175.164 107.408C175.59 107.684 175.983 108.01 176.335 108.384C176.591 108.657 176.824 108.963 177.036 109.298C177.248 109.634 177.438 110 177.607 110.39C177.777 110.78 177.925 111.193 178.053 111.628C178.18 112.063 178.287 112.518 178.374 112.989C178.547 113.93 178.64 114.935 178.657 115.966C178.674 116.998 178.617 118.056 178.487 119.105C178.358 120.154 178.156 121.194 177.888 122.189C177.62 123.183 177.287 124.132 176.89 124.999C176.691 125.433 176.476 125.846 176.246 126.234C176.017 126.623 175.773 126.987 175.515 127.321C175.256 127.655 174.983 127.96 174.695 128.23C174.408 128.501 174.108 128.739 173.794 128.937C173.129 129.357 172.469 129.712 171.844 129.996C171.22 130.28 170.63 130.492 170.107 130.624C169.583 130.756 169.127 130.81 168.767 130.775C168.588 130.757 168.432 130.717 168.305 130.655C168.177 130.593 168.078 130.508 168.011 130.4C167.947 130.297 167.918 130.187 167.92 130.076C167.923 129.964 167.956 129.852 168.017 129.746C168.077 129.639 168.165 129.536 168.277 129.447C168.388 129.357 168.523 129.279 168.679 129.219C168.965 129.109 169.265 128.906 169.572 128.626C169.88 128.346 170.195 127.99 170.508 127.573C170.821 127.157 171.132 126.681 171.435 126.163C171.737 125.644 172.031 125.082 172.307 124.496C172.582 123.91 172.84 123.299 173.073 122.679C173.306 122.06 173.513 121.432 173.686 120.814C173.86 120.195 174.001 119.586 174.099 119.003C174.198 118.419 174.254 117.861 174.261 117.347C174.271 116.675 174.256 116.071 174.21 115.529C174.163 114.986 174.084 114.506 173.965 114.082C173.846 113.658 173.688 113.29 173.481 112.973C173.274 112.657 173.019 112.391 172.707 112.17C172.395 111.949 172.028 111.774 171.595 111.637C171.163 111.501 170.665 111.404 170.096 111.34C169.526 111.276 168.886 111.246 168.163 111.243C167.441 111.241 166.638 111.266 165.746 111.313C164.267 111.392 162.921 111.438 161.945 111.45C160.97 111.462 160.365 111.439 160.365 111.379C160.365 111.258 161.854 110.081 163.674 108.763C164.228 108.361 164.798 108.007 165.376 107.701C165.954 107.395 166.54 107.135 167.128 106.925C167.715 106.715 168.304 106.553 168.887 106.439C169.47 106.326 170.046 106.26 170.611 106.243Z" fill="white"/>
<path d="M135.939 124.702C135.842 124.702 135.413 124.994 134.721 125.521C134.03 126.048 133.075 126.81 131.928 127.751C129.634 129.632 126.567 132.228 123.281 135.082C121.659 136.491 120.328 137.78 119.211 138.939C118.094 140.098 117.192 141.126 116.433 142.014C115.673 142.903 115.055 143.65 114.505 144.247C114.23 144.546 113.973 144.807 113.723 145.029C113.473 145.251 113.23 145.433 112.987 145.576C112.79 145.69 112.588 145.772 112.379 145.828C112.171 145.884 111.956 145.914 111.739 145.923C111.305 145.942 110.859 145.881 110.414 145.787C109.969 145.694 109.524 145.569 109.098 145.46C108.672 145.352 108.263 145.261 107.887 145.236L104.442 145.012L106.691 146.807C107.324 147.313 108.015 147.772 108.768 148.184C109.522 148.596 110.338 148.963 111.224 149.283C112.109 149.604 113.065 149.877 114.094 150.107C115.123 150.337 116.226 150.522 117.41 150.663C118.595 150.804 119.86 150.901 121.212 150.954C122.563 151.007 124 151.017 125.53 150.984C127.059 150.951 128.681 150.874 130.4 150.756C132.12 150.638 133.938 150.478 135.86 150.277C136.789 150.179 137.683 150.108 138.541 150.062C139.399 150.016 140.222 149.996 141.011 150.004C141.799 150.012 142.553 150.047 143.273 150.11C143.994 150.173 144.682 150.265 145.337 150.384C145.991 150.504 146.613 150.652 147.204 150.83C147.794 151.008 148.353 151.216 148.881 151.454C149.409 151.692 149.905 151.96 150.373 152.259C150.84 152.558 151.278 152.888 151.687 153.251C152.095 153.613 152.475 154.009 152.827 154.436C153.178 154.863 153.502 155.322 153.798 155.816C154.095 156.309 154.364 156.836 154.607 157.398C154.85 157.959 155.066 158.556 155.257 159.187C155.449 159.818 155.616 160.484 155.757 161.186C155.899 161.888 156.016 162.626 156.109 163.401C156.203 164.175 156.273 164.987 156.321 165.836C156.368 166.685 156.393 167.572 156.396 168.497L156.414 173.734L157.942 171.745C158.362 171.199 158.85 170.319 159.3 169.341C159.749 168.364 160.16 167.289 160.422 166.353C160.679 165.438 160.853 164.498 160.946 163.538C161.039 162.577 161.05 161.597 160.983 160.601C160.916 159.605 160.77 158.593 160.547 157.571C160.324 156.548 160.023 155.515 159.647 154.475C159.271 153.435 158.818 152.388 158.292 151.34C157.766 150.292 157.166 149.242 156.494 148.195C155.821 147.148 155.076 146.106 154.261 145.07C153.445 144.033 152.558 143.004 151.603 141.988L147.029 137.122L141.539 139.646C139.876 140.411 138.258 141.084 136.652 141.675C135.047 142.266 133.452 142.775 131.838 143.21C130.223 143.646 128.587 144.007 126.897 144.305C125.206 144.603 123.46 144.837 121.627 145.015L116.116 145.551L122.927 138.913C125.068 136.827 127.008 134.896 128.701 133.173C130.395 131.449 131.841 129.934 132.99 128.679C134.139 127.424 134.991 126.43 135.498 125.75C135.752 125.41 135.921 125.148 135.997 124.971C136.034 124.883 136.05 124.815 136.04 124.77C136.031 124.725 135.997 124.702 135.939 124.702Z" fill="white"/>
<path d="M190.912 67.61C190.57 67.6183 190.227 67.6569 189.883 67.7268C189.538 67.7966 189.192 67.8971 188.845 68.0288C188.531 68.1484 188.18 68.3215 187.796 68.5427C187.412 68.7639 186.994 69.0341 186.547 69.3493C185.654 69.9797 184.642 70.7892 183.542 71.7489C182.441 72.7086 181.252 73.8182 180.002 75.0454C178.753 76.2727 177.445 77.6176 176.105 79.0505C174.764 80.4834 173.392 82.0036 172.019 83.5803C170.645 85.157 169.271 86.7908 167.922 88.4495C166.573 90.1082 165.25 91.7926 163.984 93.4714C162.717 95.1502 161.508 96.8235 160.382 98.4605C159.639 99.5413 158.796 100.669 157.875 101.821C156.954 102.973 155.954 104.149 154.896 105.328C153.838 106.506 152.723 107.686 151.568 108.845C150.414 110.005 149.222 111.143 148.012 112.238L140.348 119.172L136.632 115.996C135.61 115.122 134.643 114.365 133.909 113.85C133.542 113.592 133.234 113.395 133.005 113.274C132.777 113.152 132.628 113.107 132.582 113.152C132.521 113.213 132.497 113.318 132.506 113.464C132.514 113.609 132.556 113.796 132.627 114.017C132.77 114.459 133.033 115.043 133.392 115.733C133.75 116.422 134.203 117.215 134.728 118.078C135.252 118.94 135.848 119.872 136.489 120.834C137.771 122.758 139.238 124.806 140.693 126.686C141.421 127.625 142.147 128.523 142.844 129.341C143.541 130.159 144.21 130.897 144.827 131.519C145.927 132.628 147.026 133.651 148.127 134.59C149.228 135.528 150.332 136.383 151.439 137.153C152.547 137.923 153.658 138.61 154.776 139.213C155.895 139.817 157.021 140.338 158.155 140.777C159.29 141.215 160.432 141.572 161.587 141.848C162.743 142.124 163.91 142.32 165.091 142.435C166.272 142.55 167.467 142.585 168.679 142.541C169.89 142.497 171.119 142.374 172.366 142.173C173.73 141.954 175.282 141.623 176.684 141.269C178.086 140.914 179.338 140.535 180.1 140.216C180.781 139.931 181.294 139.718 181.673 139.587C182.052 139.455 182.296 139.406 182.439 139.447C182.511 139.467 182.557 139.509 182.583 139.576C182.608 139.643 182.611 139.733 182.598 139.848C182.572 140.079 182.479 140.41 182.35 140.85C181.96 142.189 181.612 143.512 181.307 144.814C181.003 146.117 180.742 147.398 180.524 148.653C180.306 149.907 180.133 151.134 180.002 152.329C179.872 153.524 179.784 154.687 179.741 155.813C179.698 156.938 179.699 158.026 179.744 159.07C179.789 160.115 179.877 161.115 180.01 162.068C180.143 163.02 180.322 163.924 180.544 164.774C180.766 165.624 181.032 166.42 181.343 167.156C181.691 167.979 182.038 168.726 182.316 169.268C182.595 169.81 182.805 170.146 182.88 170.146C182.955 170.146 183.03 169.488 183.089 168.426C183.148 167.363 183.191 165.898 183.205 164.287C183.214 163.329 183.258 162.375 183.338 161.423C183.417 160.471 183.531 159.519 183.684 158.566C183.836 157.612 184.025 156.656 184.252 155.694C184.479 154.732 184.745 153.765 185.049 152.789C185.353 151.812 185.695 150.827 186.078 149.83C186.461 148.833 186.885 147.823 187.349 146.798C187.813 145.773 188.317 144.733 188.864 143.674C189.411 142.616 190 141.538 190.632 140.439C191.726 138.534 192.577 136.959 193.199 135.635C193.51 134.973 193.764 134.374 193.962 133.827C194.161 133.28 194.305 132.784 194.395 132.332C194.486 131.88 194.523 131.47 194.509 131.093C194.495 130.715 194.431 130.369 194.317 130.046C194.204 129.723 194.04 129.423 193.83 129.135C193.62 128.847 193.363 128.571 193.061 128.297C192.677 127.95 192.373 127.692 192.035 127.539C191.865 127.463 191.687 127.412 191.486 127.39C191.286 127.368 191.064 127.375 190.803 127.411C190.281 127.484 189.611 127.678 188.679 128.009C187.746 128.34 186.551 128.808 184.979 129.429C182.78 130.299 180.782 131.007 178.928 131.564C178.001 131.843 177.109 132.084 176.248 132.288C175.387 132.493 174.555 132.661 173.746 132.793C172.936 132.925 172.15 133.022 171.379 133.084C170.608 133.146 169.852 133.174 169.105 133.168C168.359 133.163 167.621 133.122 166.885 133.051C166.149 132.98 165.415 132.877 164.675 132.743C163.98 132.617 163.229 132.439 162.441 132.217C161.652 131.994 160.825 131.729 159.976 131.426C158.277 130.82 156.489 130.068 154.737 129.232C152.986 128.395 151.273 127.472 149.725 126.527C148.951 126.054 148.218 125.576 147.543 125.099C146.868 124.622 146.25 124.148 145.706 123.682L142.607 121.03L150.489 113.752C151.773 112.567 153.037 111.453 154.273 110.415C155.509 109.377 156.716 108.415 157.884 107.539C159.053 106.662 160.184 105.869 161.265 105.169C162.346 104.469 163.378 103.861 164.351 103.353C165.642 102.679 167.07 101.869 168.587 100.96C170.103 100.051 171.709 99.0421 173.353 97.97C174.997 96.8979 176.68 95.7616 178.353 94.5987C180.027 93.4359 181.691 92.2469 183.296 91.0655C184.901 89.8842 186.447 88.7114 187.885 87.5837C189.323 86.456 190.653 85.3731 191.826 84.3713C192.999 83.3694 194.016 82.4485 194.827 81.6447C195.637 80.8408 196.241 80.1541 196.591 79.6204C196.885 79.1719 197.143 78.7388 197.365 78.3186C197.586 77.8983 197.771 77.4908 197.921 77.0946C198.07 76.6985 198.183 76.3137 198.26 75.9377C198.337 75.5616 198.378 75.1936 198.383 74.8336C198.388 74.4736 198.357 74.1212 198.29 73.7732C198.223 73.4252 198.119 73.0825 197.98 72.7424C197.841 72.4022 197.666 72.0649 197.455 71.7286C197.244 71.3924 196.997 71.056 196.714 70.7196C196.418 70.3683 196.117 70.0466 195.811 69.7542C195.504 69.4617 195.192 69.1994 194.876 68.9662C194.56 68.733 194.24 68.5293 193.916 68.3558C193.591 68.1823 193.263 68.0393 192.932 67.926C192.6 67.8127 192.266 67.7296 191.929 67.6769C191.592 67.6242 191.253 67.6016 190.912 67.61Z" fill="white"/>
<path d="M189.879 168.463C189.961 168.402 190.064 168.411 190.188 168.491C190.312 168.571 190.458 168.72 190.625 168.941C190.793 169.162 190.982 169.453 191.194 169.815C191.617 170.538 192.128 171.545 192.729 172.835C193.109 173.65 193.429 174.446 193.691 175.218C193.954 175.99 194.158 176.74 194.305 177.463C194.452 178.187 194.541 178.884 194.573 179.553C194.604 180.222 194.578 180.863 194.495 181.471C194.412 182.08 194.272 182.655 194.076 183.197C193.88 183.738 193.627 184.245 193.318 184.714C193.009 185.182 192.644 185.613 192.223 186.003C191.802 186.393 191.324 186.743 190.792 187.048C190.389 187.279 189.973 187.487 189.543 187.672C189.113 187.858 188.669 188.02 188.213 188.159C187.757 188.299 187.287 188.417 186.806 188.511C186.324 188.606 185.83 188.677 185.323 188.726C184.309 188.824 183.245 188.832 182.136 188.75C181.026 188.667 179.869 188.496 178.668 188.234C177.467 187.973 176.223 187.621 174.937 187.182C173.651 186.742 172.322 186.215 170.955 185.598C169.588 184.981 168.183 184.276 166.741 183.483C165.3 182.691 163.822 181.811 162.31 180.844C161.117 180.081 160.033 179.356 159.247 178.802C158.461 178.249 157.973 177.866 157.973 177.789C157.973 177.711 158.526 177.865 159.417 178.173C160.307 178.482 161.536 178.947 162.887 179.492C163.768 179.848 164.677 180.168 165.603 180.45C166.529 180.732 167.471 180.976 168.42 181.183C169.369 181.39 170.324 181.559 171.273 181.689C172.222 181.82 173.165 181.914 174.091 181.967C175.018 182.02 175.929 182.033 176.81 182.007C177.692 181.981 178.545 181.917 179.359 181.811C180.173 181.705 180.946 181.558 181.67 181.37C182.394 181.183 183.066 180.955 183.677 180.685C184.226 180.442 184.739 180.176 185.216 179.889C185.692 179.603 186.133 179.295 186.536 178.966C186.939 178.637 187.305 178.287 187.634 177.916C187.963 177.546 188.254 177.155 188.508 176.744C188.761 176.333 188.979 175.903 189.157 175.453C189.335 175.004 189.475 174.536 189.577 174.048C189.679 173.561 189.741 173.055 189.766 172.532C189.79 172.008 189.777 171.467 189.724 170.908C189.632 169.944 189.624 169.26 189.7 168.857C189.739 168.655 189.798 168.524 189.879 168.463Z" fill="white"/>
<path d="M141.719 162.255C141.831 162.28 141.966 162.366 142.127 162.519C142.289 162.672 142.477 162.891 142.689 163.183C143.115 163.765 143.646 164.635 144.29 165.834C144.844 166.866 145.451 167.925 146.107 169.008C146.764 170.091 147.469 171.197 148.219 172.322C148.969 173.447 149.763 174.591 150.598 175.749C151.433 176.907 152.31 178.078 153.221 179.26C155.043 181.624 157.008 184.027 159.082 186.431C161.156 188.835 163.338 191.24 165.594 193.61C167.85 195.98 170.178 198.314 172.545 200.576C174.912 202.839 177.318 205.031 179.727 207.112C182.135 209.193 184.546 211.165 186.925 212.992C188.115 213.905 189.297 214.78 190.466 215.615C191.636 216.451 192.793 217.246 193.933 217.995C195.492 219.019 197.13 220.036 198.816 221.031C200.502 222.027 202.235 223.001 203.983 223.94C205.73 224.879 207.491 225.782 209.235 226.636C210.979 227.489 212.708 228.294 214.385 229.034C216.061 229.773 217.687 230.449 219.232 231.047C220.777 231.645 222.241 232.163 223.589 232.59C224.937 233.017 226.17 233.351 227.258 233.579C228.345 233.807 229.285 233.928 230.047 233.928C230.452 233.928 230.821 233.903 231.154 233.848C231.486 233.794 231.783 233.71 232.046 233.596C232.309 233.482 232.538 233.338 232.733 233.16C232.928 232.982 233.09 232.77 233.22 232.523C233.35 232.276 233.448 231.993 233.516 231.671C233.584 231.35 233.62 230.989 233.628 230.589C233.644 229.789 233.542 228.826 233.334 227.68C233.212 227.012 232.906 226.074 232.446 224.926C231.987 223.777 231.375 222.419 230.644 220.908C229.914 219.398 229.065 217.735 228.131 215.98C227.197 214.225 226.176 212.378 225.106 210.497C224.035 208.616 222.912 206.701 221.772 204.812C220.631 202.922 219.473 201.058 218.33 199.278C217.188 197.498 216.061 195.801 214.982 194.248C213.904 192.695 212.875 191.286 211.929 190.078C210.221 187.899 206.236 183.05 202.513 178.577C198.789 174.103 195.326 170.007 194.66 169.333C194.434 169.105 192.993 167.538 191.458 165.852L188.668 162.784L191.198 164.062C191.767 164.35 192.367 164.687 192.995 165.071C193.624 165.456 194.28 165.887 194.962 166.362C196.326 167.312 197.79 168.436 199.325 169.706C200.86 170.975 202.468 172.391 204.12 173.924C205.772 175.457 207.467 177.107 209.18 178.848C210.894 180.589 212.625 182.42 214.346 184.313C216.066 186.206 217.776 188.161 219.448 190.15C221.12 192.139 222.754 194.162 224.322 196.191C225.891 198.221 227.395 200.255 228.805 202.269C231.638 206.313 234.042 209.828 236.091 212.94C238.141 216.053 239.837 218.762 241.25 221.195C241.957 222.411 242.593 223.559 243.169 224.653C243.744 225.747 244.259 226.788 244.721 227.791C245.183 228.794 245.593 229.761 245.961 230.704C246.328 231.648 246.653 232.57 246.943 233.486C247.619 235.615 248.136 237.469 248.494 239.087C248.674 239.896 248.813 240.646 248.913 241.343C249.014 242.039 249.075 242.681 249.097 243.275C249.119 243.87 249.102 244.416 249.045 244.918C248.989 245.42 248.896 245.879 248.762 246.299C248.628 246.72 248.456 247.103 248.245 247.452C248.034 247.801 247.785 248.115 247.498 248.403C247.251 248.65 246.972 248.875 246.665 249.077C246.357 249.28 246.019 249.462 245.652 249.621C245.285 249.78 244.889 249.916 244.464 250.032C244.04 250.148 243.588 250.243 243.108 250.315C242.149 250.461 241.081 250.518 239.913 250.493C238.744 250.467 237.474 250.358 236.112 250.164C234.749 249.97 233.295 249.691 231.755 249.331C230.215 248.971 228.589 248.529 226.887 248.005C225.185 247.48 223.404 246.875 221.555 246.189C219.706 245.503 217.789 244.736 215.809 243.89C213.519 242.912 211.346 241.946 209.277 240.983C207.208 240.021 205.242 239.061 203.364 238.095C201.487 237.128 199.7 236.155 197.984 235.166C196.269 234.176 194.626 233.171 193.042 232.139C191.458 231.106 189.933 230.047 188.451 228.953C186.97 227.858 185.532 226.727 184.123 225.55C182.713 224.374 181.331 223.152 179.963 221.874C178.595 220.596 177.241 219.263 175.885 217.864C174.301 216.229 172.749 214.577 171.234 212.912C169.719 211.248 168.241 209.572 166.805 207.89C165.37 206.209 163.977 204.521 162.631 202.836C161.284 201.15 159.986 199.467 158.739 197.791C157.492 196.114 156.295 194.446 155.156 192.792C154.017 191.138 152.936 189.498 151.916 187.879C150.895 186.261 149.937 184.663 149.044 183.093C148.152 181.522 147.325 179.98 146.57 178.471C145.901 177.133 145.282 175.782 144.723 174.461C144.164 173.14 143.663 171.849 143.23 170.631C142.796 169.412 142.429 168.267 142.137 167.237C141.844 166.208 141.625 165.294 141.489 164.539C141.353 163.784 141.299 163.187 141.335 162.792C141.353 162.594 141.392 162.447 141.456 162.356C141.52 162.264 141.608 162.229 141.719 162.255Z" fill="white"/>
<path d="M195.552 149.428C195.642 149.384 195.783 149.444 195.976 149.624C196.168 149.804 196.413 150.102 196.709 150.529C197.005 150.956 197.355 151.511 197.756 152.208C198.336 153.216 198.952 154.198 199.613 155.163C200.275 156.128 200.982 157.076 201.747 158.019C202.512 158.962 203.335 159.898 204.226 160.839C205.117 161.78 206.076 162.725 207.116 163.686C208.155 164.646 209.275 165.621 210.485 166.621C211.696 167.621 212.999 168.648 214.403 169.709C215.807 170.77 217.313 171.866 218.933 173.008C220.553 174.151 222.288 175.339 224.146 176.584C225.363 177.399 226.568 178.245 227.759 179.117C228.95 179.99 230.127 180.889 231.288 181.814C232.448 182.739 233.593 183.687 234.72 184.659C235.846 185.631 236.956 186.625 238.044 187.638C239.132 188.651 240.2 189.684 241.246 190.734C242.291 191.783 243.313 192.85 244.312 193.93C245.311 195.011 246.285 196.106 247.233 197.213C248.181 198.32 249.103 199.438 249.995 200.565C250.888 201.693 251.753 202.83 252.587 203.973C253.42 205.116 254.224 206.265 254.994 207.419C255.764 208.572 256.501 209.728 257.204 210.886C257.906 212.045 258.575 213.204 259.206 214.362C259.837 215.52 260.432 216.676 260.987 217.828C261.543 218.981 262.058 220.13 262.534 221.271C263.009 222.413 263.444 223.546 263.835 224.672C264.227 225.797 264.574 226.914 264.877 228.018C265.184 229.138 265.446 230.332 265.662 231.578C265.879 232.824 266.05 234.121 266.177 235.446C266.305 236.771 266.388 238.122 266.428 239.478C266.468 240.834 266.465 242.194 266.419 243.534C266.373 244.874 266.286 246.194 266.156 247.47C266.026 248.747 265.854 249.981 265.642 251.147C265.429 252.313 265.177 253.411 264.883 254.419C264.59 255.426 264.256 256.343 263.884 257.145C263.368 258.256 262.815 259.303 262.225 260.289C261.636 261.275 261.01 262.198 260.344 263.061C259.679 263.923 258.975 264.725 258.231 265.467C257.487 266.208 256.703 266.89 255.877 267.513C255.051 268.136 254.183 268.7 253.272 269.207C252.361 269.714 251.405 270.164 250.406 270.557C249.408 270.95 248.365 271.285 247.275 271.566C246.185 271.847 245.05 272.072 243.866 272.243C242.614 272.425 241.62 272.561 240.755 272.656C239.89 272.751 239.153 272.805 238.415 272.818C237.676 272.831 236.936 272.804 236.063 272.74C235.191 272.676 234.185 272.577 232.916 272.441C231.313 272.269 229.718 272.064 228.131 271.826C226.545 271.588 224.967 271.318 223.399 271.015C221.831 270.712 220.274 270.375 218.726 270.007C217.178 269.639 215.641 269.239 214.114 268.807C212.587 268.374 211.07 267.911 209.565 267.415C208.06 266.919 206.567 266.392 205.085 265.833C203.604 265.273 202.134 264.682 200.677 264.06C199.22 263.439 197.775 262.787 196.343 262.103C194.912 261.419 193.493 260.704 192.089 259.959C190.685 259.214 189.294 258.438 187.917 257.632C186.541 256.827 185.18 255.992 183.833 255.125C182.486 254.259 181.154 253.362 179.837 252.436C178.521 251.51 177.221 250.556 175.937 249.571C174.652 248.586 173.383 247.572 172.131 246.528C170.879 245.485 169.645 244.411 168.428 243.31C167.21 242.208 166.01 241.079 164.828 239.92C162.716 237.849 160.767 235.871 158.957 233.942C157.147 232.012 155.476 230.132 153.915 228.255C152.355 226.378 150.905 224.507 149.541 222.595C148.177 220.683 146.898 218.73 145.678 216.695C144.457 214.659 143.295 212.54 142.165 210.293C141.035 208.046 139.937 205.671 138.845 203.124C137.753 200.577 136.666 197.857 135.559 194.922C134.452 191.987 133.324 188.836 132.149 185.425C131.368 183.159 130.644 181.102 129.957 179.228C129.27 177.353 128.621 175.66 127.996 174.123C127.371 172.586 126.768 171.204 126.173 169.95C125.578 168.696 124.99 167.569 124.393 166.543C123.796 165.517 123.191 164.591 122.56 163.738C121.93 162.886 121.274 162.106 120.578 161.372C119.882 160.637 119.146 159.949 118.353 159.279C117.559 158.608 116.71 157.956 115.788 157.295C114.55 156.408 113.687 155.71 113.184 155.211C112.933 154.962 112.772 154.763 112.699 154.613C112.625 154.464 112.64 154.364 112.741 154.316C112.841 154.268 113.027 154.273 113.298 154.328C113.569 154.384 113.924 154.491 114.362 154.652C115.236 154.975 116.438 155.51 117.954 156.266C118.836 156.705 119.659 157.164 120.447 157.673C121.235 158.183 121.986 158.743 122.724 159.385C123.461 160.026 124.185 160.749 124.916 161.585C125.647 162.421 126.387 163.371 127.155 164.464C127.924 165.557 128.722 166.795 129.572 168.208C130.422 169.62 131.323 171.206 132.299 173C133.274 174.794 134.322 176.795 135.466 179.033C136.61 181.271 137.849 183.746 139.206 186.49C140.708 189.528 142.108 192.317 143.424 194.891C144.741 197.465 145.976 199.824 147.152 202.003C148.328 204.181 149.446 206.179 150.525 208.03C151.605 209.882 152.648 211.588 153.675 213.182C154.703 214.776 155.714 216.258 156.734 217.663C157.753 219.068 158.78 220.396 159.835 221.681C160.891 222.965 161.977 224.205 163.113 225.438C164.25 226.671 165.439 227.894 166.701 229.144C167.946 230.377 169.194 231.569 170.452 232.722C171.711 233.876 172.979 234.993 174.264 236.077C175.549 237.16 176.852 238.212 178.177 239.235C179.503 240.257 180.851 241.251 182.229 242.223C183.607 243.194 185.017 244.143 186.461 245.072C187.906 246.002 189.388 246.912 190.912 247.808C192.436 248.705 194.004 249.586 195.621 250.459C197.238 251.331 198.904 252.196 200.627 253.054C202.487 253.981 204.241 254.828 205.907 255.602C207.574 256.376 209.154 257.078 210.664 257.71C212.175 258.343 213.617 258.908 215.009 259.411C216.401 259.913 217.744 260.353 219.056 260.736C220.368 261.119 221.648 261.444 222.916 261.718C224.185 261.993 225.442 262.215 226.705 262.391C227.968 262.568 229.236 262.698 230.531 262.788C231.826 262.878 233.147 262.927 234.511 262.941C236.737 262.964 238.593 262.937 240.198 262.827C241 262.772 241.741 262.697 242.432 262.598C243.124 262.499 243.767 262.376 244.377 262.226C244.987 262.076 245.564 261.899 246.123 261.69C246.682 261.482 247.222 261.241 247.759 260.966C248.297 260.691 248.83 260.38 249.376 260.032C249.921 259.684 250.479 259.298 251.062 258.869C251.565 258.499 252.036 258.102 252.476 257.678C252.916 257.254 253.325 256.802 253.703 256.32C254.081 255.838 254.429 255.326 254.748 254.781C255.067 254.236 255.357 253.659 255.618 253.047C255.879 252.435 256.112 251.788 256.317 251.105C256.523 250.421 256.7 249.7 256.852 248.94C257.003 248.181 257.129 247.381 257.228 246.541C257.328 245.7 257.403 244.819 257.453 243.894C257.506 242.894 257.529 241.924 257.52 240.969C257.51 240.015 257.468 239.078 257.39 238.148C257.313 237.218 257.2 236.294 257.049 235.368C256.899 234.442 256.71 233.514 256.481 232.571C256.252 231.629 255.984 230.673 255.673 229.694C255.361 228.715 255.007 227.712 254.608 226.676C254.208 225.64 253.762 224.571 253.27 223.457C252.778 222.344 252.239 221.187 251.649 219.976C250.97 218.582 250.262 217.226 249.506 215.88C248.75 214.534 247.946 213.198 247.069 211.847C246.193 210.496 245.246 209.128 244.206 207.719C243.166 206.31 242.032 204.859 240.785 203.339C239.537 201.819 238.176 200.23 236.678 198.546C235.181 196.862 233.548 195.083 231.756 193.183C229.965 191.283 228.016 189.261 225.887 187.091C223.759 184.922 221.451 182.604 218.942 180.112C215.05 176.246 211.925 173.117 209.394 170.531C206.863 167.944 204.926 165.901 203.41 164.206C202.651 163.358 201.997 162.599 201.427 161.901C200.857 161.203 200.372 160.568 199.947 159.972C199.521 159.376 199.158 158.819 198.835 158.276C198.511 157.733 198.228 157.204 197.963 156.666C197.149 155.013 196.528 153.559 196.105 152.396C195.894 151.815 195.731 151.306 195.619 150.881C195.507 150.456 195.447 150.115 195.435 149.869C195.424 149.623 195.462 149.473 195.552 149.428Z" fill="white"/>
<path d="M52.7756 288.609V293.852H45.6576V315.474H39.1136V293.852H31.9956V288.609H52.7756Z" fill="#008080"/>
<path d="M73.2287 310.728H63.2023L61.595 315.474H54.7448L64.4651 288.609H72.0424L81.7627 315.474H74.836L73.2287 310.728ZM71.5449 305.677L68.2155 295.842L64.9244 305.677H71.5449Z" fill="#008080"/>
<path d="M98.8481 315.474L93.2609 305.332H91.6918V315.474H85.1479V288.609H96.131C98.2486 288.609 100.047 288.979 101.527 289.719C103.032 290.458 104.155 291.479 104.895 292.78C105.634 294.056 106.004 295.484 106.004 297.066C106.004 298.852 105.494 300.447 104.474 301.85C103.479 303.253 101.999 304.248 100.034 304.835L106.234 315.474H98.8481ZM91.6918 300.702H95.7484C96.9475 300.702 97.8404 300.408 98.4272 299.822C99.0395 299.235 99.3456 298.406 99.3456 297.334C99.3456 296.314 99.0395 295.51 98.4272 294.923C97.8404 294.336 96.9475 294.043 95.7484 294.043H91.6918V300.702Z" fill="#008080"/>
<path d="M127.261 310.728H117.235L115.627 315.474H108.777L118.498 288.609H126.075L135.795 315.474H128.868L127.261 310.728ZM125.577 305.677L122.248 295.842L118.957 305.677H125.577Z" fill="#008080"/>
<path d="M177.797 288.609C180.628 288.609 183.103 289.17 185.221 290.293C187.338 291.415 188.971 292.997 190.119 295.038C191.293 297.053 191.879 299.388 191.879 302.041C191.879 304.669 191.293 307.003 190.119 309.044C188.971 311.085 187.326 312.667 185.182 313.79C183.065 314.912 180.603 315.474 177.797 315.474H167.732V288.609H177.797ZM177.376 309.81C179.85 309.81 181.777 309.134 183.154 307.781C184.532 306.429 185.221 304.516 185.221 302.041C185.221 299.566 184.532 297.64 183.154 296.263C181.777 294.885 179.85 294.196 177.376 294.196H174.276V309.81H177.376Z" fill="#008080"/>
<path d="M209.692 315.474L204.105 305.332H202.536V315.474H195.992V288.609H206.975C209.093 288.609 210.891 288.979 212.371 289.719C213.876 290.458 214.999 291.479 215.739 292.78C216.478 294.056 216.848 295.484 216.848 297.066C216.848 298.852 216.338 300.447 215.318 301.85C214.323 303.253 212.843 304.248 210.878 304.835L217.078 315.474H209.692ZM202.536 300.702H206.592C207.791 300.702 208.684 300.408 209.271 299.822C209.883 299.235 210.19 298.406 210.19 297.334C210.19 296.314 209.883 295.51 209.271 294.923C208.684 294.336 207.791 294.043 206.592 294.043H202.536V300.702Z" fill="#008080"/>
<path d="M227.926 288.609V315.474H221.382V288.609H227.926Z" fill="#008080"/>
<path d="M257.142 315.474H250.598L239.653 298.903V315.474H233.109V288.609H239.653L250.598 305.256V288.609H257.142V315.474Z" fill="#008080"/>
<path d="M279.049 310.728H269.023L267.416 315.474H260.566L270.286 288.609H277.863L287.583 315.474H280.657L279.049 310.728ZM277.366 305.677L274.036 295.842L270.745 305.677H277.366Z" fill="#008080"/>
</svg>
